<svg width="186" height="170" viewBox="0 0 186 170" fill="none" xmlns="http://www.w3.org/2000/svg">
<g clip-path="url(#clip0_6606_1637)">
<path d="M169.7 94.29C169.6 93.95 169.47 93.53 169.33 93.07L167.83 88.08L149.32 77.87L141.35 80.56L133.07 93.05L135.79 105.34L149.65 113.27L160.58 110.85L169.71 94.29H169.7Z" fill="#ACC4CC" stroke="#301E08" stroke-width="3" stroke-linecap="round" stroke-linejoin="round"/>
<path d="M169.11 120.5H169.09L157.59 114.15H157.57L152.61 115.81L147.46 123.58C148.05 126.13 148.62 128.68 149.15 131.23L157.78 136.16L157.8 136.17L164.6 134.66L170.29 124.35C170.23 124.14 170.15 123.88 170.06 123.59L169.12 120.49L169.11 120.5Z" fill="#ACC4CC" stroke="#301E08" stroke-width="3" stroke-linecap="round" stroke-linejoin="round"/>
<path d="M183.81 108.16L183.01 105.5L173.18 100.08L168.95 101.51L164.55 108.14C165.06 110.31 165.54 112.49 165.99 114.67L173.35 118.88L179.15 117.59L184 108.8C183.95 108.62 183.88 108.4 183.81 108.16Z" fill="#ACC4CC" stroke="#301E08" stroke-width="3" stroke-linecap="round" stroke-linejoin="round"/>
<path d="M141.35 80.57L133.07 93.06C134.02 97.15 134.93 101.25 135.79 105.35L149.65 113.28L160.58 110.86L169.71 94.3C169.26 92.77 168.27 89.62 167.84 88.09L149.33 77.88L141.36 80.57H141.35Z" fill="#87A3AF" stroke="black" stroke-width="0.25" stroke-linecap="round" stroke-linejoin="round"/>
<path d="M145.99 88.2L141.43 96.46C142.02 98.99 142.58 101.53 143.11 104.08L150.94 108.4C153.26 107.88 155.61 107.47 157.91 106.88L163.79 96.22C163.51 95.27 163.22 94.33 162.96 93.38L151.49 87.06L145.98 88.2H145.99Z" fill="#ACC4CC" stroke="black" stroke-width="0.25" stroke-linecap="round" stroke-linejoin="round"/>
<path d="M151.5 87.06L162.97 93.38L167.83 88.08L149.32 77.88L151.5 87.06Z" fill="#D6E1E5" stroke="black" stroke-width="0.25" stroke-linecap="round" stroke-linejoin="round"/>
<path d="M141.43 96.46L133.07 93.06L135.78 105.35L143.12 104.08L141.43 96.46Z" fill="#698893" stroke="black" stroke-width="0.25" stroke-linecap="round" stroke-linejoin="round"/>
<path d="M163.8 96.22L169.7 94.29L167.83 88.08L162.97 93.38L163.8 96.22Z" fill="#ACC4CC" stroke="black" stroke-width="0.25" stroke-linecap="round" stroke-linejoin="round"/>
<path d="M143.12 104.08L150.95 108.4L149.64 113.28L135.78 105.35L143.12 104.08Z" fill="#52737C" stroke="black" stroke-width="0.25" stroke-linecap="round" stroke-linejoin="round"/>
<path d="M157.92 106.88L160.57 110.85L149.64 113.28L150.95 108.4L157.92 106.88Z" fill="#5A7B84" stroke="black" stroke-width="0.25" stroke-linecap="round" stroke-linejoin="round"/>
<path d="M141.35 80.57L145.99 88.2L151.5 87.06L149.32 77.88L141.35 80.57Z" fill="#ACC4CC" stroke="black" stroke-width="0.25" stroke-linecap="round" stroke-linejoin="round"/>
<path d="M146.51 88.99L151.05 87.88L161.29 93.53L146.51 88.99Z" fill="#D6E1E5"/>
<path d="M152.63 115.82L147.48 123.59C148.07 126.14 148.64 128.69 149.17 131.24L157.79 136.17L164.59 134.66L170.28 124.35C170 123.4 169.38 121.44 169.11 120.49L157.59 114.14L152.63 115.82Z" fill="#87A3AF" stroke="black" stroke-width="0.25" stroke-linecap="round" stroke-linejoin="round"/>
<path d="M155.52 120.57L152.68 125.71C153.05 127.29 153.4 128.87 153.73 130.45L158.6 133.14C160.04 132.82 161.5 132.56 162.94 132.2L166.6 125.56C166.43 124.97 166.25 124.38 166.08 123.79L158.94 119.85L155.51 120.56L155.52 120.57Z" fill="#ACC4CC" stroke="black" stroke-width="0.25" stroke-linecap="round" stroke-linejoin="round"/>
<path d="M158.95 119.86L166.09 123.8L169.11 120.5L157.59 114.15L158.95 119.86Z" fill="#D6E1E5" stroke="black" stroke-width="0.25" stroke-linecap="round" stroke-linejoin="round"/>
<path d="M152.69 125.72L147.48 123.6L149.17 131.25L153.73 130.46L152.69 125.72Z" fill="#698893" stroke="black" stroke-width="0.25" stroke-linecap="round" stroke-linejoin="round"/>
<path d="M166.61 125.56L170.28 124.37L169.11 120.5L166.09 123.8L166.61 125.56Z" fill="#ACC4CC" stroke="black" stroke-width="0.25" stroke-linecap="round" stroke-linejoin="round"/>
<path d="M153.73 130.46L158.61 133.15L157.79 136.18L149.17 131.25L153.73 130.46Z" fill="#52737C" stroke="black" stroke-width="0.25" stroke-linecap="round" stroke-linejoin="round"/>
<path d="M162.95 132.2L164.59 134.67L157.79 136.18L158.61 133.15L162.95 132.2Z" fill="#5A7B84" stroke="black" stroke-width="0.25" stroke-linecap="round" stroke-linejoin="round"/>
<path d="M152.63 115.82L155.52 120.57L158.95 119.86L157.59 114.15L152.63 115.82Z" fill="#ACC4CC" stroke="black" stroke-width="0.25" stroke-linecap="round" stroke-linejoin="round"/>
<g style="mix-blend-mode:multiply">
<path d="M170.02 123.58L169.09 120.49L157.57 114.14L152.61 115.82L147.46 123.59C148.05 126.14 148.62 128.69 149.15 131.24L157.78 136.17L164.58 134.66L170.27 124.35C170.21 124.14 170.13 123.87 170.04 123.58H170.02Z" fill="#8FA5AA"/>
<path d="M170.02 123.58L169.09 120.49L157.57 114.14L152.61 115.82L147.46 123.59C148.05 126.14 148.62 128.69 149.15 131.24L157.78 136.17L164.58 134.66L170.27 124.35C170.21 124.14 170.13 123.87 170.04 123.58H170.02Z" stroke="black" stroke-width="0.25" stroke-linecap="round" stroke-linejoin="round"/>
</g>
<path d="M168.94 101.51L164.54 108.14C165.05 110.31 165.53 112.49 165.98 114.67L173.34 118.88L179.14 117.59L183.99 108.8C183.75 107.99 183.22 106.31 183 105.5L173.17 100.08L168.94 101.51Z" fill="#87A3AF" stroke="black" stroke-width="0.21" stroke-linecap="round" stroke-linejoin="round"/>
<path d="M171.41 105.57L168.99 109.96C169.3 111.31 169.6 112.65 169.88 114L174.04 116.29C175.27 116.02 176.52 115.79 177.74 115.49L180.86 109.83C180.71 109.33 180.56 108.83 180.42 108.32L174.33 104.96L171.4 105.57H171.41Z" fill="#ACC4CC" stroke="black" stroke-width="0.21" stroke-linecap="round" stroke-linejoin="round"/>
<path d="M174.34 104.96L180.43 108.32L183 105.5L173.18 100.09L174.34 104.96Z" fill="#D6E1E5" stroke="black" stroke-width="0.21" stroke-linecap="round" stroke-linejoin="round"/>
<path d="M168.99 109.95L164.55 108.15L165.99 114.67L169.88 114L168.99 109.95Z" fill="#698893" stroke="black" stroke-width="0.21" stroke-linecap="round" stroke-linejoin="round"/>
<path d="M180.87 109.82L184 108.8L183 105.5L180.43 108.32L180.87 109.82Z" fill="#ACC4CC" stroke="black" stroke-width="0.21" stroke-linecap="round" stroke-linejoin="round"/>
<path d="M169.88 114L174.04 116.29L173.35 118.88L165.99 114.67L169.88 114Z" fill="#52737C" stroke="black" stroke-width="0.21" stroke-linecap="round" stroke-linejoin="round"/>
<path d="M177.75 115.49L179.15 117.6L173.35 118.88L174.04 116.29L177.75 115.49Z" fill="#5A7B84" stroke="black" stroke-width="0.21" stroke-linecap="round" stroke-linejoin="round"/>
<path d="M168.94 101.51L171.41 105.57L174.34 104.96L173.18 100.09L168.94 101.51Z" fill="#ACC4CC" stroke="black" stroke-width="0.21" stroke-linecap="round" stroke-linejoin="round"/>
<path d="M164.67 44.72L176.94 40.43L164.67 36.13L170.59 31.69L159.04 32.07L160.63 25.29L151.86 33.19V36.55L151.52 36.86V40.43V44L151.86 44.31V47.66L160.63 55.56L159.04 48.78L170.59 49.16L164.67 44.72Z" fill="#D14318"/>
<path d="M151.79 34.72L158.7 28.49L157.45 33.84L166.56 33.54L161.89 37.04L171.57 40.43H151.79V34.72Z" fill="#F9713D"/>
<path d="M151.79 46.13L158.7 52.36L157.45 47.02L166.56 47.31L161.89 43.81L171.57 40.43H151.79V46.13Z" fill="#F9713D"/>
<path d="M156.5 42.1L161.28 40.43L156.5 38.76L158.81 37.03L154.31 37.17L154.93 34.54L151.52 37.61V40.43V43.24L154.93 46.32L154.31 43.68L158.81 43.83L156.5 42.1Z" fill="#F9E63D"/>
<path d="M91.7698 76.14V63.13V50.12L67.3398 42.26V63.13V83.99L91.7698 76.14Z" fill="#333333" stroke="black" stroke-width="1.17" stroke-linecap="round" stroke-linejoin="round"/>
<path d="M61.3799 42.26V83.8L67.3399 83.99V42.26H61.3799Z" fill="#B3B3B3" stroke="black" stroke-width="1.17" stroke-linecap="round" stroke-linejoin="round"/>
<path d="M61.38 42.26L16.7 63.13L61.38 83.8V42.26Z" fill="#BDCCD4" stroke="black" stroke-width="2" stroke-linecap="round" stroke-linejoin="round"/>
<path d="M82.2298 47.05L76.5798 45.24V81.02L82.2298 79.2V47.05Z" fill="#BDCCD4" stroke="black" stroke-width="1.17" stroke-linecap="round" stroke-linejoin="round"/>
<path d="M49.5798 47.77C49.5798 47.77 55.3798 58.12 55.3798 81.02" stroke="#1A1A1A" stroke-width="0.78" stroke-miterlimit="10"/>
<path d="M39.6199 52.37C39.6199 52.37 45.4199 59.86 45.4199 76.42" stroke="#1A1A1A" stroke-width="0.66" stroke-miterlimit="10"/>
<path d="M30.3799 56.33C30.3799 56.33 36.1799 61.35 36.1799 72.46" stroke="#1A1A1A" stroke-width="0.54" stroke-miterlimit="10"/>
<g style="mix-blend-mode:multiply" opacity="0.41">
<path d="M82.23 72.21L66.54 75.53H61.38L18.49 63.15L61.38 83.8H67.34L82.23 79.2V72.21Z" fill="#333333"/>
</g>
<g style="mix-blend-mode:overlay">
<path d="M66.54 46.86L18.49 63.09L66.54 54.02V46.86Z" fill="#F2F2F2"/>
</g>
<path d="M92.8999 99.6C120.127 99.6 142.2 77.5276 142.2 50.3C142.2 23.0724 120.127 1 92.8999 1C65.6722 1 43.5999 23.0724 43.5999 50.3C43.5999 77.5276 65.6722 99.6 92.8999 99.6Z" fill="#5B2ECC" stroke="#0F0F0E" stroke-width="2" stroke-miterlimit="10"/>
<path d="M92.8999 82.33C110.435 82.33 124.65 68.115 124.65 50.58C124.65 33.0449 110.435 18.83 92.8999 18.83C75.3649 18.83 61.1499 33.0449 61.1499 50.58C61.1499 68.115 75.3649 82.33 92.8999 82.33Z" fill="#9A7FCD"/>
<path d="M111.4 4.59L94.5299 57.65H44.1499C43.7899 55.25 43.5999 52.8 43.5999 50.3C43.5999 23.08 65.6699 1 92.8999 1C99.4499 1 105.69 2.27 111.4 4.59Z" fill="#00BAEB" stroke="#0F0F0E" stroke-width="2" stroke-miterlimit="10"/>
<g style="mix-blend-mode:multiply">
<path d="M141.39 50.3C141.39 77.53 119.32 99.6 92.0899 99.6C77.1099 99.6 63.6999 92.92 54.6599 82.38C63.0799 88.11 73.2499 91.46 84.1999 91.46C113.24 91.46 136.78 67.92 136.78 38.88C136.78 34.67 136.29 30.58 135.35 26.66C139.2 33.68 141.39 41.73 141.39 50.3Z" fill="#B7B7B7"/>
</g>
<path d="M107.27 92.98C100.09 92.98 95.2299 82.55 93.3199 77.55H68.6799V71.55H97.5999L98.2799 73.61C100.51 80.31 104.84 87.45 107.56 86.96C109.64 86.59 111.18 85.65 112.97 84.56C116.31 82.52 120.48 79.98 128.32 81.97L128.39 81.99C128 80.9 127.4 79.51 126.92 78.38C125.04 74.02 122.71 68.59 122.71 63.05H128.71C128.71 67.35 130.77 72.15 132.43 76.01C134.45 80.71 135.91 84.11 133.74 86.65C131.71 89.03 128.18 88.13 126.84 87.79C121.45 86.42 119.2 87.79 116.09 89.69C114.08 90.92 111.8 92.31 108.6 92.88C108.15 92.96 107.7 93 107.26 93L107.27 92.98Z" fill="#23E523" stroke="black" stroke-miterlimit="10"/>
<path d="M91.77 65.39V83.84C91.77 83.84 105.59 80.9 105.59 74.73C105.59 68.56 91.77 65.39 91.77 65.39Z" fill="#FFD74E" stroke="black" stroke-width="1.17" stroke-linecap="round" stroke-linejoin="round"/>
<g style="mix-blend-mode:multiply" opacity="0.41">
<path d="M105.59 74.57C105.59 80.73 91.77 83.67 91.77 83.67V80.83C94.56 80.12 102.6 77.79 105.5 73.73C105.56 74.01 105.59 74.28 105.59 74.57Z" fill="#333333"/>
</g>
<path d="M124.165 79.6233L112.448 82.02C111.988 82.114 111.691 82.5631 111.785 83.0231L113.36 90.7236C113.454 91.1835 113.904 91.4801 114.364 91.386L126.081 88.9893C126.541 88.8953 126.837 88.4462 126.743 87.9862L125.168 80.2857C125.074 79.8258 124.625 79.5292 124.165 79.6233Z" fill="#BDCCD4" stroke="black" stroke-width="1.17" stroke-linecap="round" stroke-linejoin="round"/>
<g style="mix-blend-mode:multiply" opacity="0.41">
<path d="M126.75 86.47C126.84 86.93 126.55 87.38 126.09 87.47L114.37 89.87C113.91 89.96 113.46 89.67 113.37 89.21L112.94 87.12L126.32 84.37L126.75 86.47Z" fill="#333333"/>
</g>
<mask id="mask0_6606_1637" style="mask-type:luminance" maskUnits="userSpaceOnUse" x="46" y="5" width="62" height="52">
<path d="M89.48 5.40001H107.07V56.34H46.75V48.12C46.75 24.54 65.9 5.39001 89.48 5.39001V5.40001Z" fill="white"/>
</mask>
<g mask="url(#mask0_6606_1637)">
<path d="M93.2901 35.54C93.4101 35.38 93.5101 35.21 93.5701 35V34.97C93.7701 34.37 93.6101 33.73 93.2401 33.29L98.5201 27.82L89.9301 25.66L92.1501 17.62L83.3901 20.5V12.1C77.8701 13.06 74.2901 16.92 72.1501 20.34C72.0801 20.27 72.0001 20.21 71.9201 20.17L69.2801 18.74C68.7401 18.45 68.0801 18.67 67.8001 19.24L62.8201 29.46C62.5401 30.03 62.7601 30.72 63.3001 31.01L64.5501 31.68C63.5601 34.5 62.9001 37.33 61.7001 37.49C61.4001 37.53 61.1201 37.63 60.8601 37.77C60.3201 37.05 59.4001 36.57 58.3501 36.57C56.6901 36.57 55.3401 37.76 55.3401 39.24C55.3401 40.72 56.6001 41.81 58.1801 41.89C58.1801 41.9 58.1801 41.92 58.1801 41.92H59.2801C58.5401 42.48 58.3501 43.79 59.1401 44.53C59.6601 45.01 60.4301 45.44 61.3801 45.82L60.9301 48.47C59.6901 54.67 58.6801 64.97 65.1701 66.49C67.4701 67.03 70.1201 67.42 72.8501 67.65C72.2201 69.18 71.4101 70.44 70.4401 70.52C70.4301 70.52 70.4101 70.52 70.4001 70.52C68.9301 70.6 68.2101 71.53 68.2001 72.34C68.1801 72.97 68.5801 73.55 69.4001 73.61C69.6101 73.63 69.9701 73.64 70.4401 73.65V73.62C72.9001 73.67 78.3901 73.64 81.7901 73.62C83.2701 73.6 84.3601 72.11 84.0801 70.51L83.9501 69.78C83.9501 69.78 83.9801 69.78 84.0001 69.78L83.6001 67.57C87.7201 67.09 90.9001 65.99 91.6801 64.15C92.7601 61.62 92.0301 55.77 91.1701 51.07V51.05C91.0201 50.28 90.8801 49.53 90.7401 48.84C91.3201 48.77 91.8401 48.36 92.0601 47.72L93.6301 43.21C93.8701 42.52 93.4301 41.78 92.7801 41.77H92.3601L98.5701 36.28L93.3501 35.51L93.2901 35.54Z" fill="#7C7C7C" stroke="black" stroke-width="2.94" stroke-linecap="round" stroke-linejoin="round"/>
<path d="M62.0301 43.79C62.0301 43.79 55.7601 64.31 65.1201 66.51C74.4801 68.71 89.7601 68.55 91.6201 64.17C93.5601 59.6 89.6401 44.25 89.6401 44.25L62.0301 43.79Z" fill="#BDCCD4" stroke="black" stroke-width="0.41" stroke-miterlimit="10"/>
<path d="M69.4701 26.04C69.4701 26.04 72.9801 13.93 83.3801 12.13V20.53L92.1401 17.65L89.9201 25.69L98.5101 27.85L91.3501 35.27L98.5101 36.32L92.1401 41.94H58.1501C58.1501 41.94 59.2701 37.83 61.6801 37.53C64.0901 37.23 64.3101 26.05 69.4701 26.05V26.04Z" fill="#824B22" stroke="black" stroke-width="0.43" stroke-miterlimit="10"/>
<path d="M68.3176 37.3138C68.7436 35.7641 68.4672 34.337 67.7004 34.1262C66.9335 33.9154 65.9666 35.0008 65.5406 36.5505C65.1146 38.1001 65.3909 39.5273 66.1578 39.7381C66.9246 39.9489 67.8916 38.8635 68.3176 37.3138Z" fill="black"/>
<path d="M67.3081 35.5081C67.3959 35.1771 67.2982 34.864 67.09 34.8088C66.8818 34.7536 66.6419 34.9772 66.5542 35.3081C66.4664 35.6391 66.564 35.9522 66.7722 36.0074C66.9804 36.0626 67.2204 35.839 67.3081 35.5081Z" fill="white"/>
<path d="M58.3301 41.93C59.9924 41.93 61.3401 40.7346 61.3401 39.26C61.3401 37.7854 59.9924 36.59 58.3301 36.59C56.6677 36.59 55.3201 37.7854 55.3201 39.26C55.3201 40.7346 56.6677 41.93 58.3301 41.93Z" fill="#F45B6D" stroke="black" stroke-width="0.39" stroke-miterlimit="10"/>
<g style="mix-blend-mode:multiply">
<path d="M61.3401 39.26C61.3401 40.73 59.9901 41.93 58.3301 41.93C56.6701 41.93 55.3201 40.73 55.3201 39.26C55.3201 38.99 55.3601 38.73 55.4601 38.48C55.8401 39.57 56.9801 40.36 58.3401 40.36C59.7001 40.36 60.8301 39.58 61.2101 38.48C61.3001 38.72 61.3501 38.98 61.3501 39.26H61.3401Z" fill="#F45B6D"/>
</g>
<path d="M64.74 51.55L66.83 54.08L64.74 57.73L67.35 59.53L66.17 62.24L73.4 61.54C76.13 61.27 78.23 58.86 78.23 55.97C78.23 52.56 75.36 49.95 72.16 50.43L64.74 51.55Z" fill="#824B22" stroke="black" stroke-width="0.43" stroke-miterlimit="10"/>
<path d="M66.17 62.25L67.35 59.53L64.74 57.73L66.83 54.08L64.74 51.55L67.88 51.08L69.12 61.96L66.17 62.25Z" fill="white" stroke="black" stroke-width="0.43" stroke-miterlimit="10"/>
<path d="M79.9102 48.49C79.9102 48.49 81.4002 58.24 81.1602 67.8" stroke="black" stroke-width="0.43" stroke-miterlimit="10"/>
<g style="mix-blend-mode:multiply">
<path d="M61.3401 45.83L60.8901 48.49C60.8901 48.49 81.1601 51.91 91.1201 51.09L90.2201 46.69L61.3401 45.84V45.83Z" fill="#BDCCD4"/>
</g>
<path d="M60.0502 41.66L92.7202 41.8C93.3702 41.8 93.8102 42.55 93.5702 43.24L92.0002 47.75C91.7602 48.44 91.1802 48.9 90.5202 48.89C85.2502 48.88 63.4402 48.59 59.1002 44.55C58.0702 43.59 58.7102 41.66 60.0502 41.67V41.66Z" fill="#FFD74E" stroke="black" stroke-width="0.45" stroke-miterlimit="10"/>
<path d="M64.29 44.06C64.29 44.06 91.98 43.11 91.67 44.5C90.68 48.86 64.29 44.06 64.29 44.06Z" fill="#DDAE2A"/>
<path d="M57.7201 38.27C58.2006 38.27 58.5901 38.0103 58.5901 37.69C58.5901 37.3697 58.2006 37.11 57.7201 37.11C57.2396 37.11 56.8501 37.3697 56.8501 37.69C56.8501 38.0103 57.2396 38.27 57.7201 38.27Z" fill="white"/>
<path d="M88.19 58L85.19 58.28L84.99 55.98L87.99 55.7L88.19 58Z" fill="#9DB1BA" stroke="black" stroke-width="0.43" stroke-miterlimit="10"/>
<g style="mix-blend-mode:multiply">
<path d="M64.29 32.45L66.64 33.58C67.29 33.82 68.01 33.55 68.36 32.93L69.63 30.22L91.44 36.89C91.88 37.02 92.34 36.84 92.6 36.45L93.57 35L67.59 25.61C67.59 25.61 64.83 30.85 64.29 32.45Z" fill="#BDCCD4"/>
</g>
<path d="M91.5502 36.11L66.6702 28.18L69.1202 23.04L92.5402 32.82C93.4002 33.11 93.8602 34.08 93.5802 34.98V35.01C93.3002 35.89 92.4002 36.38 91.5602 36.11H91.5502Z" fill="#BDCCD4" stroke="black" stroke-width="0.43" stroke-miterlimit="10"/>
<path d="M65.9201 32.47L63.2801 31.04C62.7401 30.75 62.5301 30.05 62.8001 29.49L67.7801 19.27C68.0601 18.7 68.7201 18.48 69.2601 18.77L71.9001 20.2C72.4401 20.49 72.6501 21.19 72.3801 21.75L67.4001 31.97C67.1201 32.54 66.4601 32.76 65.9201 32.47Z" fill="#BDCCD4" stroke="black" stroke-width="0.47" stroke-miterlimit="10"/>
<path d="M71.9101 21.75L71.6201 22.35C71.5201 22.21 71.3901 22.09 71.2201 22L68.3701 20.46C68.2101 20.37 68.0401 20.33 67.8701 20.32L68.1601 19.72C68.3901 19.25 68.9301 19.07 69.3601 19.31L71.5201 20.48C71.9601 20.71 72.1301 21.29 71.9101 21.75Z" fill="#F9F9F9"/>
<g style="mix-blend-mode:multiply" opacity="0.28">
<path d="M63.26 29.48L63.55 28.88C63.65 29.02 63.78 29.14 63.95 29.23L66.8 30.77C66.96 30.86 67.13 30.9 67.3 30.91L67.01 31.51C66.78 31.98 66.24 32.16 65.81 31.92L63.65 30.75C63.21 30.52 63.04 29.94 63.26 29.48Z" fill="#7C7C7C"/>
</g>
</g>
<g style="mix-blend-mode:screen">
<path d="M109.84 5.72999L93.7499 56.34H45.6899C45.3499 54.05 45.1699 51.71 45.1699 49.33C45.1699 23.37 66.2199 2.29999 92.1999 2.29999C98.4499 2.29999 104.4 3.50999 109.85 5.71999L109.84 5.72999Z" fill="#0A3F93"/>
</g>
<g style="mix-blend-mode:screen">
<path d="M109.15 7.45001C104.53 5.88001 99.57 5.07001 94.43 5.07001C89.58 5.07001 84.91 5.81001 80.51 7.18001C82.34 7.08001 83.72 7.51001 84.2 8.51001C85.12 10.43 82.34 13.67 77.99 15.76C73.64 17.85 69.37 17.98 68.45 16.07C67.91 14.94 68.66 13.36 70.24 11.82C56.78 20 47.79 34.8 47.79 51.7C47.79 53.22 47.87 54.74 48.02 56.22H47.25C46.92 54 46.75 51.74 46.75 49.44C46.75 24.29 67.13 3.89001 92.29 3.89001C98.28 3.89001 104.01 5.05001 109.24 7.15001L109.15 7.45001Z" fill="white"/>
</g>
<path d="M91.7698 87.62V74.61V61.61L67.3398 53.75V74.61V95.48L91.7698 87.62Z" fill="#333333" stroke="black" stroke-width="2" stroke-linecap="round" stroke-linejoin="round"/>
<path d="M61.3799 53.75V95.28L67.3399 95.48V53.75H61.3799Z" fill="#B3B3B3" stroke="black" stroke-width="2" stroke-linecap="round" stroke-linejoin="round"/>
<path d="M61.38 53.75L16.7 74.61L61.38 95.28V53.75Z" fill="#BDCCD4" stroke="black" stroke-width="2" stroke-linecap="round" stroke-linejoin="round"/>
<path d="M82.2298 58.54L76.5798 56.72V92.51L82.2298 90.69V58.54Z" fill="#BDCCD4" stroke="black" stroke-width="1.17" stroke-linecap="round" stroke-linejoin="round"/>
<path d="M49.5798 59.26C49.5798 59.26 55.3798 69.61 55.3798 92.51" stroke="#1A1A1A" stroke-width="0.78" stroke-miterlimit="10"/>
<path d="M39.6199 63.86C39.6199 63.86 45.4199 71.35 45.4199 87.91" stroke="#1A1A1A" stroke-width="0.66" stroke-miterlimit="10"/>
<path d="M30.3799 67.82C30.3799 67.82 36.1799 72.84 36.1799 83.95" stroke="#1A1A1A" stroke-width="0.54" stroke-miterlimit="10"/>
<g style="mix-blend-mode:multiply" opacity="0.41">
<path d="M82.23 83.7L66.54 87.02H61.38L18.49 74.63L61.38 95.28H67.34L82.23 90.69V83.7Z" fill="#333333"/>
</g>
<g style="mix-blend-mode:overlay">
<path d="M66.54 58.35L18.49 74.57L66.54 65.51V58.35Z" fill="#F2F2F2"/>
</g>
<path d="M144.78 28.74L151.58 32.32V40.4H144.78V28.74Z" fill="#F2F2F2" stroke="black" stroke-linecap="round" stroke-linejoin="round"/>
<path d="M144.78 52.06L151.58 48.47V40.4H144.78V52.06Z" fill="#F2F2F2" stroke="black" stroke-linecap="round" stroke-linejoin="round"/>
<path d="M151.58 35.62L146.29 34.35" stroke="#070707" stroke-width="0.72" stroke-linecap="round" stroke-linejoin="round"/>
<path d="M151.58 45.18L146.29 46.44" stroke="#070707" stroke-width="0.72" stroke-linecap="round" stroke-linejoin="round"/>
<path d="M136.8 55.6H146.29V25.2H136.8V55.6Z" fill="#BDCCD4" stroke="black" stroke-width="1.42" stroke-linecap="round" stroke-linejoin="round"/>
<path d="M138.41 58.82V21.98L99.3199 21.98V58.82H138.41Z" fill="#1B1464" stroke="black" stroke-width="0.85" stroke-miterlimit="10"/>
<path d="M120.81 46.66C124.24 46.66 127.02 43.8797 127.02 40.45C127.02 37.0203 124.24 34.24 120.81 34.24H86.47C83.0403 34.24 80.26 37.0203 80.26 40.45C80.26 43.8797 83.0403 46.66 86.47 46.66H120.81Z" fill="#F2F2F2" stroke="black" stroke-width="1.4" stroke-linecap="round" stroke-linejoin="round"/>
<path d="M121.03 44.34C123.256 44.34 125.06 42.538 125.06 40.315C125.06 38.0921 123.256 36.29 121.03 36.29H98.7798C96.5541 36.29 94.7498 38.0921 94.7498 40.315C94.7498 42.538 96.5541 44.34 98.7798 44.34H121.03Z" fill="#0000A0"/>
<path d="M99.32 58.82H91.51V54.27L99.32 51.46V58.82Z" fill="#F2F2F2" stroke="black" stroke-width="1.05" stroke-linecap="round" stroke-linejoin="round"/>
<path d="M106.46 40.4H101.11" stroke="black" stroke-width="0.75" stroke-linecap="round" stroke-linejoin="round"/>
<path d="M101.11 21.96V58.83" stroke="black" stroke-width="0.75" stroke-linecap="round" stroke-linejoin="round"/>
<path d="M141.2 60.14V20.66H137.61V60.14H141.2Z" fill="#F2F2F2" stroke="black" stroke-width="0.96" stroke-linecap="round" stroke-linejoin="round"/>
<g style="mix-blend-mode:soft-light">
<path d="M99.6499 22.61V26.66L137.6 26.66V22.61L99.6499 22.61Z" fill="white"/>
</g>
<path d="M135.61 50.54V30.26H132.7V50.54H135.61Z" fill="black" stroke="black" stroke-width="0.63" stroke-linecap="round" stroke-linejoin="round"/>
<path d="M135.15 34.97V31.46H133.12V34.97H135.15Z" fill="#00FFFF" stroke="black" stroke-width="0.85" stroke-miterlimit="10"/>
<path d="M135.15 38.55V35.04H133.12V38.55H135.15Z" fill="#00FFFF" stroke="black" stroke-width="0.85" stroke-miterlimit="10"/>
<path d="M135.15 42.13V38.62H133.12V42.13H135.15Z" fill="#00FFFF" stroke="black" stroke-width="0.85" stroke-miterlimit="10"/>
<path d="M135.15 45.71V42.2H133.12V45.71H135.15Z" fill="#00FFFF" stroke="black" stroke-width="0.85" stroke-miterlimit="10"/>
<path d="M135.15 49.29V45.78H133.12V49.29H135.15Z" fill="#00FFFF" stroke="black" stroke-width="0.85" stroke-miterlimit="10"/>
<path d="M105.62 62.38V64.27C105.62 65.3414 106.488 66.21 107.56 66.21H110.64C111.711 66.21 112.58 65.3414 112.58 64.27V62.38C112.58 61.3086 111.711 60.44 110.64 60.44H107.56C106.488 60.44 105.62 61.3086 105.62 62.38Z" fill="white" stroke="black" stroke-width="0.64" stroke-miterlimit="10"/>
<path d="M125.28 57.98L118.01 67.61H109.13V57.98H125.28Z" fill="#0000FF" stroke="black" stroke-width="0.64" stroke-linecap="round" stroke-linejoin="round"/>
<path d="M127.6 56.35V62.77H105.14C104.2 62.77 103.43 62 103.43 61.06V58.06C103.43 57.12 104.2 56.35 105.14 56.35H127.6Z" fill="#CCCCCC" stroke="black" stroke-width="0.64" stroke-linecap="round" stroke-linejoin="round"/>
<path d="M131.41 60.62V21.14H128.47V60.62H131.41Z" fill="#F2F2F2" stroke="black" stroke-width="0.58" stroke-linecap="round" stroke-linejoin="round"/>
<path d="M108.24 59.56C108.24 58.8365 107.653 58.25 106.93 58.25C106.206 58.25 105.62 58.8365 105.62 59.56C105.62 60.2835 106.206 60.87 106.93 60.87C107.653 60.87 108.24 60.2835 108.24 59.56Z" fill="#0000FF" stroke="black" stroke-width="0.43" stroke-linecap="round" stroke-linejoin="round"/>
<path d="M124.95 57.98H122.33V60.6H124.95V57.98Z" fill="black" stroke="black" stroke-width="0.75" stroke-linecap="round" stroke-linejoin="round"/>
<path d="M136 64.83H122.59C122.19 64.83 121.8 64.7 121.49 64.46L110.88 56.35H136.01V64.83H136Z" fill="#F2F2F2" stroke="black" stroke-width="0.64" stroke-linecap="round" stroke-linejoin="round"/>
<path d="M134.12 56.5H132.7V59.91C132.7 60.3 133.02 60.62 133.41 60.62C133.8 60.62 134.13 60.3 134.13 59.91V56.5H134.12Z" fill="#C6C6C6" stroke="black" stroke-width="0.21" stroke-linecap="round" stroke-linejoin="round"/>
<path d="M131.65 56.5H130.23V59.91C130.23 60.3 130.55 60.62 130.94 60.62C131.33 60.62 131.66 60.3 131.66 59.91V56.5H131.65Z" fill="#C6C6C6" stroke="black" stroke-width="0.21" stroke-linecap="round" stroke-linejoin="round"/>
<path d="M129.19 56.5H127.77V59.91C127.77 60.3 128.09 60.62 128.48 60.62C128.87 60.62 129.2 60.3 129.2 59.91V56.5H129.19Z" fill="#C6C6C6" stroke="black" stroke-width="0.21" stroke-linecap="round" stroke-linejoin="round"/>
<path d="M126.73 56.5H125.31V59.91C125.31 60.3 125.63 60.62 126.02 60.62C126.41 60.62 126.74 60.3 126.74 59.91V56.5H126.73Z" fill="#C6C6C6" stroke="black" stroke-width="0.21" stroke-linecap="round" stroke-linejoin="round"/>
<path d="M124.26 56.5H122.84V59.91C122.84 60.3 123.16 60.62 123.55 60.62C123.94 60.62 124.27 60.3 124.27 59.91V56.5H124.26Z" fill="#C6C6C6" stroke="black" stroke-width="0.21" stroke-linecap="round" stroke-linejoin="round"/>
<path style="mix-blend-mode:multiply" d="M119.27 62.77H117.52L109.12 56.35H110.87L119.27 62.77Z" fill="url(#paint0_linear_6606_1637)"/>
<g style="mix-blend-mode:multiply" opacity="0.28">
<path d="M104.29 50.44C104.29 50.44 106.65 47.13 108.58 44.31V36.45C106.65 33.62 104.29 30.32 104.29 30.32H96.9699L90.1699 36.83V43.93L96.9699 50.44H104.29Z" fill="black"/>
</g>
<path d="M104.65 49.79H97.9699L91.6499 43.73V37.12L97.9699 31.06H104.65C104.65 31.06 106.84 34.13 108.64 36.77V44.08C106.84 46.71 104.65 49.79 104.65 49.79Z" fill="#CCCCCC" stroke="black" stroke-width="0.82" stroke-linecap="round" stroke-linejoin="round"/>
<g style="mix-blend-mode:multiply">
<path d="M99.24 49.79H97.84L91.51 43.73V37.12L97.84 31.06H99.24L92.92 37.12V43.73L99.24 49.79Z" fill="#CCCCCC"/>
</g>
<path d="M104.32 34.85H102.89C102.255 34.85 101.74 35.3649 101.74 36V36.71C101.74 37.3451 102.255 37.86 102.89 37.86H104.32C104.955 37.86 105.47 37.3451 105.47 36.71V36C105.47 35.3649 104.955 34.85 104.32 34.85Z" fill="white" stroke="black" stroke-width="0.55" stroke-linecap="round" stroke-linejoin="round"/>
<path d="M104.32 42.95H102.89C102.255 42.95 101.74 43.4649 101.74 44.1V44.81C101.74 45.4451 102.255 45.96 102.89 45.96H104.32C104.955 45.96 105.47 45.4451 105.47 44.81V44.1C105.47 43.4649 104.955 42.95 104.32 42.95Z" fill="white" stroke="black" stroke-width="0.55" stroke-linecap="round" stroke-linejoin="round"/>
<path d="M108.45 40.43H91.6499" stroke="black" stroke-width="0.96" stroke-linecap="round" stroke-linejoin="round"/>
<path d="M136 62.3H122.93C122.16 62.3 121.53 61.67 121.53 60.9V60.27C121.53 59.5 120.9 58.87 120.13 58.87H114.13" stroke="black" stroke-width="0.21" stroke-miterlimit="10"/>
<path d="M119.5 9.86001C120.47 8.09001 119.23 5.54001 116.71 4.15001C114.2 2.76001 111.37 3.07001 110.4 4.84001C110.3 5.03001 110.23 5.23001 110.17 5.44001C110.02 5.60001 109.89 5.76001 109.78 5.95001C108.81 7.72001 110.05 10.27 112.57 11.66C115.08 13.05 117.91 12.74 118.88 10.97C118.98 10.78 119.05 10.58 119.11 10.37C119.26 10.21 119.39 10.05 119.5 9.86001Z" fill="#FFE69F" stroke="black" stroke-width="2.04" stroke-linecap="round" stroke-linejoin="round"/>
<path d="M126.86 11.72C124.66 9.88 121.82 9.64999 120.53 11.2C120.39 11.37 120.29 11.55 120.19 11.75C120.02 11.88 119.85 12.01 119.71 12.18C118.42 13.73 119.16 16.48 121.36 18.31C123.56 20.15 126.4 20.38 127.69 18.83C127.83 18.66 127.93 18.48 128.03 18.28C128.2 18.15 128.37 18.02 128.51 17.85C129.8 16.3 129.06 13.55 126.86 11.72Z" fill="#FFE69F" stroke="black" stroke-width="2.04" stroke-linecap="round" stroke-linejoin="round"/>
<path d="M118.89 10.9763C119.863 9.21117 118.614 6.65582 116.099 5.26877C113.585 3.88172 110.757 4.18822 109.783 5.95335C108.81 7.71849 110.059 10.2738 112.574 11.6609C115.088 13.0479 117.916 12.7414 118.89 10.9763Z" fill="#FFD74E" stroke="black" stroke-width="0.49" stroke-linecap="round" stroke-linejoin="round"/>
<path d="M119.507 9.86734C120.481 8.1022 119.232 5.54685 116.717 4.1598C114.202 2.77274 111.374 3.07924 110.401 4.84438C109.427 6.60952 110.677 9.16486 113.191 10.5519C115.706 11.939 118.534 11.6325 119.507 9.86734Z" fill="#FFD74E" stroke="black" stroke-width="0.49" stroke-linecap="round" stroke-linejoin="round"/>
<path d="M118.16 8.50999C118.02 8.75999 117.81 8.96999 117.56 9.11999C116.76 9.61999 115.48 9.56999 114.32 8.92999C112.94 8.16999 112.17 6.80999 112.5 5.75999C112.53 5.64999 112.57 5.54999 112.62 5.44999C113.22 4.37999 114.93 4.18999 116.47 5.02999C118 5.87999 118.75 7.42999 118.16 8.49999V8.50999Z" fill="#2B6ED4" stroke="black" stroke-width="0.3" stroke-linecap="round" stroke-linejoin="round"/>
<path d="M127.7 18.8291C128.991 17.2808 128.249 14.5348 126.043 12.6957C123.838 10.8566 121.003 10.6209 119.712 12.1692C118.421 13.7175 119.163 16.4635 121.369 18.3026C123.574 20.1416 126.409 20.3774 127.7 18.8291Z" fill="#FFD74E" stroke="black" stroke-width="0.49" stroke-linecap="round" stroke-linejoin="round"/>
<path d="M128.506 17.8494C129.797 16.3011 129.055 13.5551 126.849 11.716C124.644 9.87693 121.809 9.64119 120.518 11.1895C119.227 12.7378 119.969 15.4838 122.175 17.3229C124.38 19.1619 127.215 19.3977 128.506 17.8494Z" fill="#FFD74E" stroke="black" stroke-width="0.49" stroke-linecap="round" stroke-linejoin="round"/>
<path d="M127.46 16.27C127.34 16.41 127.21 16.53 127.04 16.62C126.15 17.16 124.75 16.91 123.61 15.96C122.5 15.03 122 13.74 122.3 12.78C122.37 12.58 122.46 12.38 122.61 12.22C123.39 11.28 125.13 11.43 126.46 12.54C127.8 13.66 128.25 15.33 127.47 16.28L127.46 16.27Z" fill="#2B6ED4" stroke="black" stroke-width="0.3" stroke-linecap="round" stroke-linejoin="round"/>
<path d="M117.56 9.13002C116.76 9.63002 115.48 9.58001 114.32 8.94001C112.94 8.18001 112.17 6.82001 112.5 5.77001C113.3 5.27001 114.58 5.31001 115.75 5.95001C117.15 6.72001 117.9 8.08002 117.56 9.13002Z" fill="#00DBFF" stroke="black" stroke-width="0.3" stroke-linecap="round" stroke-linejoin="round"/>
<path d="M127.04 16.62C126.15 17.16 124.75 16.91 123.61 15.96C122.5 15.03 122 13.74 122.3 12.78C123.18 12.25 124.6 12.49 125.74 13.45C126.84 14.37 127.35 15.66 127.04 16.62Z" fill="#00DBFF" stroke="black" stroke-width="0.3" stroke-linecap="round" stroke-linejoin="round"/>
<path d="M110.54 37.63H110.41C109.94 37.63 109.56 38.0106 109.56 38.48V42.43C109.56 42.8994 109.94 43.28 110.41 43.28H110.54C111.009 43.28 111.39 42.8994 111.39 42.43V38.48C111.39 38.0106 111.009 37.63 110.54 37.63Z" fill="#00FFFF"/>
<path d="M113.13 37.63H113C112.53 37.63 112.15 38.0106 112.15 38.48V42.43C112.15 42.8994 112.53 43.28 113 43.28H113.13C113.599 43.28 113.98 42.8994 113.98 42.43V38.48C113.98 38.0106 113.599 37.63 113.13 37.63Z" fill="#00FFFF"/>
<path d="M115.72 37.63H115.59C115.121 37.63 114.74 38.0106 114.74 38.48V42.43C114.74 42.8994 115.121 43.28 115.59 43.28H115.72C116.189 43.28 116.57 42.8994 116.57 42.43V38.48C116.57 38.0106 116.189 37.63 115.72 37.63Z" fill="#00FFFF"/>
<path d="M118.31 37.63H118.18C117.71 37.63 117.33 38.0106 117.33 38.48V42.43C117.33 42.8994 117.71 43.28 118.18 43.28H118.31C118.779 43.28 119.16 42.8994 119.16 42.43V38.48C119.16 38.0106 118.779 37.63 118.31 37.63Z" fill="#00FFFF"/>
<path d="M120.9 37.63H120.77C120.3 37.63 119.92 38.0106 119.92 38.48V42.43C119.92 42.8994 120.3 43.28 120.77 43.28H120.9C121.369 43.28 121.75 42.8994 121.75 42.43V38.48C121.75 38.0106 121.369 37.63 120.9 37.63Z" fill="#00FFFF"/>
<path d="M35.2199 104.27C34.8999 104.06 34.4899 103.8 34.0399 103.51L29.2199 100.4L6.41991 105.06L1.65991 113.01L3.63991 129.39L14.6999 137.75L31.9799 134.5L39.4099 124.66L35.2399 104.25L35.2199 104.27Z" fill="#ACC4CC" stroke="#301E08" stroke-width="3.3" stroke-linecap="round" stroke-linejoin="round"/>
<path d="M53.45 126.65H53.42L39.25 129.55H39.22L36.26 134.51L37.49 144.71C39.81 146.42 42.1 148.15 44.37 149.92L55.12 147.89H55.15L59.77 141.77L57.17 129.07C56.97 128.94 56.71 128.77 56.43 128.6L53.43 126.67L53.45 126.65Z" fill="#ACC4CC" stroke="#301E08" stroke-width="3.3" stroke-linecap="round" stroke-linejoin="round"/>
<path d="M56.95 105.82L54.38 104.17L42.27 106.65L39.74 110.87L40.79 119.57C42.77 121.03 44.72 122.51 46.66 124.01L55.83 122.28L59.77 117.06L57.55 106.22C57.38 106.11 57.16 105.97 56.93 105.82H56.95Z" fill="#ACC4CC" stroke="#301E08" stroke-width="3.3" stroke-linecap="round" stroke-linejoin="round"/>
<path d="M1.6499 113.02L3.6299 129.4C7.3499 132.15 11.0399 134.93 14.6899 137.76L31.9699 134.51L39.3999 124.67L35.2299 104.26C33.7599 103.3 30.6799 101.37 29.2299 100.39L6.4299 105.05L1.6699 113L1.6499 113.02Z" fill="#87A3AF" stroke="black" stroke-width="0.28" stroke-linecap="round" stroke-linejoin="round"/>
<path d="M10.99 116.09L13.07 126.27C15.37 127.97 17.66 129.7 19.92 131.45L29.57 129.48C31.14 127.39 32.81 125.37 34.33 123.23L31.64 110.09C30.73 109.5 29.81 108.91 28.91 108.31L14.78 111.2L10.97 116.09H10.99Z" fill="#ACC4CC" stroke="black" stroke-width="0.28" stroke-linecap="round" stroke-linejoin="round"/>
<path d="M14.7999 111.2L28.9299 108.31L29.2099 100.4L6.40991 105.07L14.7999 111.2Z" fill="#D6E1E5" stroke="black" stroke-width="0.28" stroke-linecap="round" stroke-linejoin="round"/>
<path d="M13.0799 126.28L3.62988 129.4L14.6899 137.76L19.9299 131.46L13.0799 126.28Z" fill="#698893" stroke="black" stroke-width="0.28" stroke-linecap="round" stroke-linejoin="round"/>
<path d="M31.6499 110.09L35.2199 104.27L29.2099 100.4L28.9299 108.31L31.6499 110.09Z" fill="#ACC4CC" stroke="black" stroke-width="0.28" stroke-linecap="round" stroke-linejoin="round"/>
<path d="M19.9299 131.46L29.5799 129.49L31.9699 134.51L14.6899 137.76L19.9299 131.46Z" fill="#52737C" stroke="black" stroke-width="0.28" stroke-linecap="round" stroke-linejoin="round"/>
<path d="M34.3398 123.23L39.3898 124.67L31.9698 134.51L29.5798 129.49L34.3398 123.23Z" fill="#5A7B84" stroke="black" stroke-width="0.28" stroke-linecap="round" stroke-linejoin="round"/>
<path d="M1.6499 113.02L10.9899 116.09L14.7999 111.2L6.4099 105.07L1.6499 113.02Z" fill="#ACC4CC" stroke="black" stroke-width="0.28" stroke-linecap="round" stroke-linejoin="round"/>
<path d="M12 116.38L15.01 112.22L27.63 109.64L12 116.38Z" fill="#D6E1E5"/>
<path d="M36.2898 134.51L37.5198 144.71C39.8398 146.42 42.1298 148.15 44.3998 149.92L55.1498 147.89L59.7698 141.77L57.1698 129.07C56.2498 128.47 54.3398 127.27 53.4298 126.66L39.2398 129.56L36.2798 134.51H36.2898Z" fill="#87A3AF" stroke="black" stroke-width="0.28" stroke-linecap="round" stroke-linejoin="round"/>
<path d="M42.1099 136.42L43.4099 142.76C44.8399 143.82 46.2699 144.89 47.6799 145.99L53.6899 144.76C54.6699 143.46 55.7099 142.2 56.6599 140.87L54.9899 132.69C54.4199 132.32 53.8499 131.96 53.2899 131.58L44.4999 133.38L42.1299 136.43L42.1099 136.42Z" fill="#ACC4CC" stroke="black" stroke-width="0.28" stroke-linecap="round" stroke-linejoin="round"/>
<path d="M44.48 133.38L53.27 131.58L53.45 126.65L39.26 129.56L44.48 133.38Z" fill="#D6E1E5" stroke="black" stroke-width="0.28" stroke-linecap="round" stroke-linejoin="round"/>
<path d="M43.4098 142.76L37.5298 144.71L44.4098 149.91L47.6698 145.99L43.4098 142.76Z" fill="#698893" stroke="black" stroke-width="0.28" stroke-linecap="round" stroke-linejoin="round"/>
<path d="M54.97 132.69L57.19 129.06L53.45 126.65L53.27 131.58L54.97 132.69Z" fill="#ACC4CC" stroke="black" stroke-width="0.28" stroke-linecap="round" stroke-linejoin="round"/>
<path d="M47.6699 145.99L53.6799 144.76L55.1599 147.89L44.4099 149.91L47.6699 145.99Z" fill="#52737C" stroke="black" stroke-width="0.28" stroke-linecap="round" stroke-linejoin="round"/>
<path d="M56.6399 140.87L59.7899 141.76L55.1599 147.89L53.6799 144.76L56.6399 140.87Z" fill="#5A7B84" stroke="black" stroke-width="0.28" stroke-linecap="round" stroke-linejoin="round"/>
<path d="M36.2898 134.51L42.1098 136.42L44.4798 133.38L39.2598 129.56L36.2898 134.51Z" fill="#ACC4CC" stroke="black" stroke-width="0.28" stroke-linecap="round" stroke-linejoin="round"/>
<g style="mix-blend-mode:multiply">
<path d="M56.41 128.58L53.42 126.66L39.23 129.56L36.27 134.51L37.5 144.71C39.82 146.42 42.11 148.15 44.38 149.92L55.13 147.89L59.75 141.77L57.15 129.07C56.94 128.94 56.68 128.77 56.4 128.59L56.41 128.58Z" fill="#8FA5AA"/>
<path d="M56.41 128.58L53.42 126.66L39.23 129.56L36.27 134.51L37.5 144.71C39.82 146.42 42.11 148.15 44.38 149.92L55.13 147.89L59.75 141.77L57.15 129.07C56.94 128.94 56.68 128.77 56.4 128.59L56.41 128.58Z" stroke="black" stroke-width="0.28" stroke-linecap="round" stroke-linejoin="round"/>
</g>
<path d="M39.75 110.86L40.8 119.56C42.78 121.02 44.73 122.5 46.67 124L55.84 122.27L59.78 117.05L57.56 106.21C56.78 105.7 55.14 104.67 54.37 104.16L42.26 106.64L39.73 110.86H39.75Z" fill="#87A3AF" stroke="black" stroke-width="0.23" stroke-linecap="round" stroke-linejoin="round"/>
<path d="M44.71 112.5L45.82 117.91C47.04 118.81 48.26 119.73 49.46 120.66L54.58 119.61C55.42 118.5 56.3 117.42 57.11 116.29L55.68 109.31C55.2 108.99 54.71 108.68 54.23 108.36L46.73 109.89L44.71 112.49V112.5Z" fill="#ACC4CC" stroke="black" stroke-width="0.23" stroke-linecap="round" stroke-linejoin="round"/>
<path d="M46.73 109.9L54.23 108.36L54.38 104.16L42.27 106.64L46.73 109.9Z" fill="#D6E1E5" stroke="black" stroke-width="0.23" stroke-linecap="round" stroke-linejoin="round"/>
<path d="M45.8098 117.9L40.7998 119.56L46.6698 124L49.4498 120.65L45.8098 117.9Z" fill="#698893" stroke="black" stroke-width="0.23" stroke-linecap="round" stroke-linejoin="round"/>
<path d="M55.68 109.31L57.57 106.22L54.38 104.16L54.23 108.36L55.68 109.31Z" fill="#ACC4CC" stroke="black" stroke-width="0.23" stroke-linecap="round" stroke-linejoin="round"/>
<path d="M49.4499 120.65L54.5699 119.61L55.8399 122.28L46.6699 124L49.4499 120.65Z" fill="#52737C" stroke="black" stroke-width="0.23" stroke-linecap="round" stroke-linejoin="round"/>
<path d="M57.0998 116.29L59.7898 117.05L55.8398 122.28L54.5698 119.61L57.0998 116.29Z" fill="#5A7B84" stroke="black" stroke-width="0.23" stroke-linecap="round" stroke-linejoin="round"/>
<path d="M39.75 110.86L44.71 112.5L46.73 109.9L42.27 106.64L39.75 110.86Z" fill="#ACC4CC" stroke="black" stroke-width="0.23" stroke-linecap="round" stroke-linejoin="round"/>
<path d="M48.87 132.66C47.35 122.56 45.83 112.46 44.3 102.36C40.25 102.97 36.21 103.66 32.18 104.43C31.69 101.88 31.21 99.32 30.72 96.77C42.67 94.49 54.71 92.89 66.79 91.97C66.99 94.56 67.18 97.16 67.38 99.75C63.31 100.06 59.24 100.45 55.17 100.92C56.34 111.07 57.51 121.21 58.68 131.36C55.4 131.74 52.13 132.17 48.86 132.67L48.87 132.66Z" stroke="black" stroke-width="7.6"/>
<path d="M74.05 130C73.27 117.21 72.49 104.42 71.72 91.63C75.47 91.4 79.23 91.24 82.99 91.14C83.11 95.69 83.23 100.24 83.34 104.78C88.24 104.65 93.14 104.64 98.04 104.75C98.14 100.2 98.24 95.65 98.33 91.1C102.09 91.18 105.84 91.33 109.6 91.54C108.88 104.33 108.15 117.13 107.43 129.92C104.12 129.73 100.81 129.6 97.5 129.53C97.62 124.13 97.73 118.73 97.85 113.33C93.09 113.23 88.32 113.24 83.56 113.36C83.7 118.76 83.84 124.16 83.98 129.56C80.67 129.65 77.36 129.79 74.05 129.99V130Z" stroke="black" stroke-width="7.6"/>
<path d="M115.05 130.46C116.11 117.69 117.18 104.92 118.24 92.15C129.31 93.07 140.34 94.57 151.29 96.63C150.8 99.21 150.32 101.79 149.83 104.37C142.75 103.03 135.63 101.94 128.49 101.1C128.22 103.35 127.96 105.59 127.69 107.84C134.07 108.6 140.44 109.55 146.78 110.71C146.32 113.23 145.86 115.76 145.4 118.28C139.22 117.15 133.01 116.22 126.78 115.48C126.46 118.2 126.14 120.92 125.81 123.64C132.65 124.45 139.47 125.5 146.26 126.8C145.77 129.37 145.28 131.94 144.79 134.52C134.94 132.64 125.01 131.29 115.05 130.45V130.46Z" stroke="black" stroke-width="7.6"/>
<path d="M48.87 132.66C47.35 122.56 45.83 112.46 44.3 102.36C40.25 102.97 36.21 103.66 32.18 104.43C31.69 101.88 31.21 99.32 30.72 96.77C42.67 94.49 54.71 92.89 66.79 91.97C66.99 94.56 67.18 97.16 67.38 99.75C63.31 100.06 59.24 100.45 55.17 100.92C56.34 111.07 57.51 121.21 58.68 131.36C55.4 131.74 52.13 132.17 48.86 132.67L48.87 132.66Z" fill="#FBB03B"/>
<path d="M74.05 130C73.27 117.21 72.49 104.42 71.72 91.63C75.47 91.4 79.23 91.24 82.99 91.14C83.11 95.69 83.23 100.24 83.34 104.78C88.24 104.65 93.14 104.64 98.04 104.75C98.14 100.2 98.24 95.65 98.33 91.1C102.09 91.18 105.84 91.33 109.6 91.54C108.88 104.33 108.15 117.13 107.43 129.92C104.12 129.73 100.81 129.6 97.5 129.53C97.62 124.13 97.73 118.73 97.85 113.33C93.09 113.23 88.32 113.24 83.56 113.36C83.7 118.76 83.84 124.16 83.98 129.56C80.67 129.65 77.36 129.79 74.05 129.99V130Z" fill="#FBB03B"/>
<path d="M115.05 130.46C116.11 117.69 117.18 104.92 118.24 92.15C129.31 93.07 140.34 94.57 151.29 96.63C150.8 99.21 150.32 101.79 149.83 104.37C142.75 103.03 135.63 101.94 128.49 101.1C128.22 103.35 127.96 105.59 127.69 107.84C134.07 108.6 140.44 109.55 146.78 110.71C146.32 113.23 145.86 115.76 145.4 118.28C139.22 117.15 133.01 116.22 126.78 115.48C126.46 118.2 126.14 120.92 125.81 123.64C132.65 124.45 139.47 125.5 146.26 126.8C145.77 129.37 145.28 131.94 144.79 134.52C134.94 132.64 125.01 131.29 115.05 130.45V130.46Z" fill="#FBB03B"/>
<path d="M48.87 132.66C47.35 122.56 45.83 112.46 44.3 102.36C40.25 102.97 36.21 103.66 32.18 104.43C31.69 101.88 31.21 99.32 30.72 96.77C42.67 94.49 54.71 92.89 66.79 91.97C66.99 94.56 67.18 97.16 67.38 99.75C63.31 100.06 59.24 100.45 55.17 100.92C56.34 111.07 57.51 121.21 58.68 131.36C55.4 131.74 52.13 132.17 48.86 132.67L48.87 132.66Z" fill="#9BEAFF"/>
<path d="M74.05 130C73.27 117.21 72.49 104.42 71.72 91.63C75.47 91.4 79.23 91.24 82.99 91.14C83.11 95.69 83.23 100.24 83.34 104.78C88.24 104.65 93.14 104.64 98.04 104.75C98.14 100.2 98.24 95.65 98.33 91.1C102.09 91.18 105.84 91.33 109.6 91.54C108.88 104.33 108.15 117.13 107.43 129.92C104.12 129.73 100.81 129.6 97.5 129.53C97.62 124.13 97.73 118.73 97.85 113.33C93.09 113.23 88.32 113.24 83.56 113.36C83.7 118.76 83.84 124.16 83.98 129.56C80.67 129.65 77.36 129.79 74.05 129.99V130Z" fill="#9BEAFF"/>
<path d="M115.05 130.46C116.11 117.69 117.18 104.92 118.24 92.15C129.31 93.07 140.34 94.57 151.29 96.63C150.8 99.21 150.32 101.79 149.83 104.37C142.75 103.03 135.63 101.94 128.49 101.1C128.22 103.35 127.96 105.59 127.69 107.84C134.07 108.6 140.44 109.55 146.78 110.71C146.32 113.23 145.86 115.76 145.4 118.28C139.22 117.15 133.01 116.22 126.78 115.48C126.46 118.2 126.14 120.92 125.81 123.64C132.65 124.45 139.47 125.5 146.26 126.8C145.77 129.37 145.28 131.94 144.79 134.52C134.94 132.64 125.01 131.29 115.05 130.45V130.46Z" fill="#9BEAFF"/>
<path d="M58.66 131.35C55.39 131.73 52.11 132.17 48.84 132.66C48.22 128.48 47.59 124.3 46.96 120.12C49.89 118.84 53.25 117.48 56.91 116.17C57.5 121.23 58.08 126.29 58.66 131.35Z" fill="#00BAEB"/>
<path d="M108.48 111.28C108.12 117.5 107.77 123.71 107.42 129.93C104.11 129.73 100.8 129.61 97.4899 129.54C97.6099 124.14 97.7199 118.73 97.8299 113.34C93.0699 113.24 88.3099 113.24 83.5399 113.36C83.6799 118.77 83.8199 124.17 83.9599 129.57C80.6499 129.65 77.3399 129.79 74.0299 130C73.6599 123.83 73.2799 117.66 72.9099 111.49C79.0599 110.12 85.4999 109.24 91.8699 109.24C96.9099 109.24 102.58 110.01 108.48 111.28Z" fill="#00BAEB"/>
<path d="M146.25 126.8C145.75 129.38 145.26 131.95 144.77 134.52C134.92 132.64 124.99 131.29 115.03 130.46C115.5 124.73 115.98 118.99 116.46 113.25C119.86 114.17 123.29 115.22 126.66 116.34C126.37 118.78 126.09 121.22 125.8 123.65C132.64 124.46 139.46 125.51 146.25 126.8Z" fill="#00BAEB"/>
<path d="M46.8199 152.92C46.5499 151.08 46.6299 149.32 47.0799 147.62C47.5299 145.93 48.2699 144.4 49.3099 143.04C50.3499 141.68 51.6599 140.54 53.2399 139.64C54.8199 138.74 56.5799 138.17 58.5099 137.93C60.7999 137.65 62.8299 137.8 64.5799 138.39C66.3399 138.97 67.9599 139.88 69.4499 141.12C68.4699 142.73 67.4999 144.34 66.5499 145.95C66.1999 145.66 65.7899 145.36 65.3099 145.05C64.8299 144.74 64.2799 144.46 63.6499 144.22C63.0099 143.98 62.3099 143.81 61.5299 143.69C60.7499 143.58 59.8799 143.6 58.9099 143.74C57.9899 143.88 57.1299 144.18 56.3099 144.64C55.4899 145.1 54.7899 145.69 54.1899 146.4C53.5999 147.12 53.1499 147.94 52.8599 148.87C52.5699 149.8 52.4899 150.79 52.6299 151.85C52.7499 152.8 53.0199 153.68 53.4399 154.51C53.8699 155.33 54.4099 156.03 55.0699 156.61C55.7299 157.19 56.4999 157.61 57.3799 157.9C58.2499 158.18 59.2099 158.28 60.2499 158.21C61.2599 158.11 62.1399 157.91 62.8999 157.61C63.6599 157.31 64.3299 156.95 64.9199 156.52C65.5099 156.1 66.0299 155.65 66.4599 155.18C66.8899 154.71 67.2899 154.26 67.6499 153.82C68.8399 155.27 70.0099 156.73 71.1599 158.19C70.0199 159.78 68.6299 161.08 66.9799 162.1C65.3299 163.12 63.3699 163.76 61.0799 164.05C61.0399 164.05 60.9999 164.05 60.9699 164.06C59.2199 164.28 57.5499 164.16 55.9499 163.69C54.3499 163.22 52.9299 162.49 51.6699 161.5C50.4099 160.51 49.3499 159.28 48.4899 157.81C47.6299 156.34 47.0699 154.72 46.8099 152.93L46.8199 152.92Z" stroke="#231F20" stroke-width="6"/>
<path d="M46.8199 152.92C46.5499 151.08 46.6299 149.32 47.0799 147.62C47.5299 145.93 48.2699 144.4 49.3099 143.04C50.3499 141.68 51.6599 140.54 53.2399 139.64C54.8199 138.74 56.5799 138.17 58.5099 137.93C60.7999 137.65 62.8299 137.8 64.5799 138.39C66.3399 138.97 67.9599 139.88 69.4499 141.12C68.4699 142.73 67.4999 144.34 66.5499 145.95C66.1999 145.66 65.7899 145.36 65.3099 145.05C64.8299 144.74 64.2799 144.46 63.6499 144.22C63.0099 143.98 62.3099 143.81 61.5299 143.69C60.7499 143.58 59.8799 143.6 58.9099 143.74C57.9899 143.88 57.1299 144.18 56.3099 144.64C55.4899 145.1 54.7899 145.69 54.1899 146.4C53.5999 147.12 53.1499 147.94 52.8599 148.87C52.5699 149.8 52.4899 150.79 52.6299 151.85C52.7499 152.8 53.0199 153.68 53.4399 154.51C53.8699 155.33 54.4099 156.03 55.0699 156.61C55.7299 157.19 56.4999 157.61 57.3799 157.9C58.2499 158.18 59.2099 158.28 60.2499 158.21C61.2599 158.11 62.1399 157.91 62.8999 157.61C63.6599 157.31 64.3299 156.95 64.9199 156.52C65.5099 156.1 66.0299 155.65 66.4599 155.18C66.8899 154.71 67.2899 154.26 67.6499 153.82C68.8399 155.27 70.0099 156.73 71.1599 158.19C70.0199 159.78 68.6299 161.08 66.9799 162.1C65.3299 163.12 63.3699 163.76 61.0799 164.05C61.0399 164.05 60.9999 164.05 60.9699 164.06C59.2199 164.28 57.5499 164.16 55.9499 163.69C54.3499 163.22 52.9299 162.49 51.6699 161.5C50.4099 160.51 49.3499 159.28 48.4899 157.81C47.6299 156.34 47.0699 154.72 46.8099 152.93L46.8199 152.92Z" fill="#FBB03B"/>
<path d="M71.12 149.78C71 148 71.21 146.3 71.77 144.67C72.32 143.04 73.16 141.58 74.26 140.31C75.36 139.04 76.71 138 78.3 137.23C79.88 136.45 81.6 136.03 83.46 135.96C85.34 135.89 87.11 136.2 88.73 136.86C90.35 137.53 91.76 138.45 92.93 139.64C94.1 140.82 95.03 142.21 95.69 143.8C96.35 145.39 96.67 147.09 96.65 148.9C96.63 150.68 96.29 152.37 95.64 153.96C94.99 155.55 94.1 156.94 92.97 158.14C91.85 159.34 90.55 160.3 89.07 161.03C87.59 161.76 85.99 162.15 84.26 162.21C82.55 162.27 80.94 161.99 79.41 161.36C77.88 160.74 76.53 159.87 75.35 158.75C74.17 157.63 73.21 156.3 72.44 154.76C71.68 153.22 71.23 151.56 71.11 149.78H71.12ZM84.08 156.22C85.02 156.19 85.9 155.97 86.72 155.56C87.55 155.15 88.25 154.62 88.85 153.96C89.44 153.3 89.91 152.53 90.26 151.67C90.61 150.8 90.78 149.88 90.77 148.89C90.77 147.93 90.57 147.03 90.2 146.18C89.83 145.33 89.33 144.58 88.7 143.93C88.07 143.27 87.32 142.77 86.44 142.4C85.56 142.04 84.64 141.87 83.66 141.9C82.65 141.94 81.73 142.17 80.89 142.59C80.05 143.01 79.32 143.58 78.72 144.27C78.12 144.97 77.65 145.75 77.33 146.63C77.01 147.5 76.88 148.42 76.92 149.37C76.97 150.35 77.2 151.27 77.59 152.11C77.99 152.95 78.5 153.68 79.15 154.3C79.79 154.92 80.54 155.4 81.39 155.75C82.24 156.1 83.12 156.26 84.07 156.22H84.08Z" stroke="#231F20" stroke-width="6"/>
<path d="M71.12 149.78C71 148 71.21 146.3 71.77 144.67C72.32 143.04 73.16 141.58 74.26 140.31C75.36 139.04 76.71 138 78.3 137.23C79.88 136.45 81.6 136.03 83.46 135.96C85.34 135.89 87.11 136.2 88.73 136.86C90.35 137.53 91.76 138.45 92.93 139.64C94.1 140.82 95.03 142.21 95.69 143.8C96.35 145.39 96.67 147.09 96.65 148.9C96.63 150.68 96.29 152.37 95.64 153.96C94.99 155.55 94.1 156.94 92.97 158.14C91.85 159.34 90.55 160.3 89.07 161.03C87.59 161.76 85.99 162.15 84.26 162.21C82.55 162.27 80.94 161.99 79.41 161.36C77.88 160.74 76.53 159.87 75.35 158.75C74.17 157.63 73.21 156.3 72.44 154.76C71.68 153.22 71.23 151.56 71.11 149.78H71.12ZM84.08 156.22C85.02 156.19 85.9 155.97 86.72 155.56C87.55 155.15 88.25 154.62 88.85 153.96C89.44 153.3 89.91 152.53 90.26 151.67C90.61 150.8 90.78 149.88 90.77 148.89C90.77 147.93 90.57 147.03 90.2 146.18C89.83 145.33 89.33 144.58 88.7 143.93C88.07 143.27 87.32 142.77 86.44 142.4C85.56 142.04 84.64 141.87 83.66 141.9C82.65 141.94 81.73 142.17 80.89 142.59C80.05 143.01 79.32 143.58 78.72 144.27C78.12 144.97 77.65 145.75 77.33 146.63C77.01 147.5 76.88 148.42 76.92 149.37C76.97 150.35 77.2 151.27 77.59 152.11C77.99 152.95 78.5 153.68 79.15 154.3C79.79 154.92 80.54 155.4 81.39 155.75C82.24 156.1 83.12 156.26 84.07 156.22H84.08Z" fill="#FBB03B"/>
<path d="M99.2798 161.8C99.4398 153.29 99.5998 144.77 99.7698 136.26C102.34 136.32 104.91 136.41 107.48 136.54C108.03 136.57 108.59 136.6 109.18 136.63C109.76 136.66 110.34 136.71 110.92 136.77C112.27 136.91 113.52 137.23 114.64 137.73C115.77 138.23 116.73 138.91 117.5 139.76C118.28 140.61 118.86 141.64 119.25 142.82C119.64 144 119.77 145.35 119.64 146.86C119.47 149.01 118.88 150.73 117.89 152.02C116.9 153.32 115.65 154.25 114.15 154.83C115.8 157.53 117.41 160.25 118.97 162.98C116.87 162.77 114.76 162.59 112.66 162.43C111.27 160.07 109.84 157.73 108.38 155.39C107.82 155.36 107.26 155.33 106.7 155.3C106.14 155.27 105.58 155.25 105.02 155.22C104.94 157.47 104.86 159.71 104.77 161.96C102.94 161.88 101.12 161.82 99.2898 161.78L99.2798 161.8ZM105.21 149.65C105.66 149.67 106.11 149.69 106.56 149.71C106.8 149.72 107.08 149.74 107.4 149.75C107.72 149.77 108.04 149.78 108.38 149.8C108.71 149.82 109.03 149.83 109.32 149.83C109.61 149.83 109.85 149.84 110.04 149.85C111.1 149.86 112.01 149.61 112.76 149.09C113.51 148.57 113.93 147.66 114.01 146.36C114.09 145.09 113.79 144.12 113.09 143.47C112.39 142.82 111.5 142.43 110.42 142.31C110.04 142.26 109.48 142.21 108.73 142.15C107.98 142.1 107.38 142.06 106.92 142.03C106.44 142.01 105.97 141.98 105.49 141.96C105.4 144.51 105.3 147.07 105.21 149.62V149.65Z" stroke="#231F20" stroke-width="6"/>
<path d="M99.2798 161.8C99.4398 153.29 99.5998 144.77 99.7698 136.26C102.34 136.32 104.91 136.41 107.48 136.54C108.03 136.57 108.59 136.6 109.18 136.63C109.76 136.66 110.34 136.71 110.92 136.77C112.27 136.91 113.52 137.23 114.64 137.73C115.77 138.23 116.73 138.91 117.5 139.76C118.28 140.61 118.86 141.64 119.25 142.82C119.64 144 119.77 145.35 119.64 146.86C119.47 149.01 118.88 150.73 117.89 152.02C116.9 153.32 115.65 154.25 114.15 154.83C115.8 157.53 117.41 160.25 118.97 162.98C116.87 162.77 114.76 162.59 112.66 162.43C111.27 160.07 109.84 157.73 108.38 155.39C107.82 155.36 107.26 155.33 106.7 155.3C106.14 155.27 105.58 155.25 105.02 155.22C104.94 157.47 104.86 159.71 104.77 161.96C102.94 161.88 101.12 161.82 99.2898 161.78L99.2798 161.8ZM105.21 149.65C105.66 149.67 106.11 149.69 106.56 149.71C106.8 149.72 107.08 149.74 107.4 149.75C107.72 149.77 108.04 149.78 108.38 149.8C108.71 149.82 109.03 149.83 109.32 149.83C109.61 149.83 109.85 149.84 110.04 149.85C111.1 149.86 112.01 149.61 112.76 149.09C113.51 148.57 113.93 147.66 114.01 146.36C114.09 145.09 113.79 144.12 113.09 143.47C112.39 142.82 111.5 142.43 110.42 142.31C110.04 142.26 109.48 142.21 108.73 142.15C107.98 142.1 107.38 142.06 106.92 142.03C106.44 142.01 105.97 141.98 105.49 141.96C105.4 144.51 105.3 147.07 105.21 149.62V149.65Z" fill="#FBB03B"/>
<path d="M123.33 137.78C129.45 138.43 135.55 139.29 141.63 140.34C141.37 142.17 141.1 143.99 140.84 145.82C136.8 145.12 132.75 144.51 128.69 143.99C128.51 145.64 128.34 147.29 128.16 148.95C132.08 149.47 135.99 150.07 139.88 150.75C139.63 152.5 139.38 154.25 139.13 155.99C135.32 155.33 131.5 154.76 127.67 154.26C127.52 155.67 127.37 157.09 127.21 158.5C131.06 159 134.91 159.58 138.75 160.24C138.49 162.01 138.24 163.79 137.98 165.56C132.36 164.59 126.72 163.8 121.06 163.19C121.81 154.71 122.57 146.24 123.33 137.77V137.78Z" stroke="#231F20" stroke-width="6"/>
<path d="M123.33 137.78C129.45 138.43 135.55 139.29 141.63 140.34C141.37 142.17 141.1 143.99 140.84 145.82C136.8 145.12 132.75 144.51 128.69 143.99C128.51 145.64 128.34 147.29 128.16 148.95C132.08 149.47 135.99 150.07 139.88 150.75C139.63 152.5 139.38 154.25 139.13 155.99C135.32 155.33 131.5 154.76 127.67 154.26C127.52 155.67 127.37 157.09 127.21 158.5C131.06 159 134.91 159.58 138.75 160.24C138.49 162.01 138.24 163.79 137.98 165.56C132.36 164.59 126.72 163.8 121.06 163.19C121.81 154.71 122.57 146.24 123.33 137.77V137.78Z" fill="#FBB03B"/>
<path d="M67.6699 153.81C67.3099 154.25 66.9099 154.7 66.4699 155.17C66.0399 155.64 65.5299 156.09 64.9299 156.51C64.3399 156.93 63.6699 157.3 62.9099 157.6C62.1499 157.9 61.2699 158.1 60.2499 158.19C59.1999 158.27 58.2499 158.17 57.3799 157.88C56.4999 157.6 55.7299 157.17 55.0699 156.6C54.3999 156.03 53.8599 155.33 53.4399 154.51C53.1199 153.89 52.8999 153.26 52.7499 152.58C50.5099 152.79 48.5299 152.99 46.8499 153.17C47.1399 154.86 47.6799 156.39 48.4999 157.79C49.3499 159.27 50.4199 160.5 51.6799 161.48C52.9399 162.49 54.3599 163.21 55.9599 163.68C57.5499 164.15 59.2199 164.27 60.9799 164.05C61.0199 164.05 61.0599 164.04 61.0899 164.04C63.3899 163.75 65.3399 163.12 66.9999 162.09C68.6499 161.06 70.0499 159.77 71.1699 158.17C70.0199 156.71 68.8499 155.26 67.6599 153.8L67.6699 153.81Z" fill="#EF8B06"/>
<path d="M90.5698 150.71C90.4998 151.04 90.3998 151.36 90.2698 151.66C89.9198 152.53 89.4398 153.29 88.8498 153.96C88.2598 154.62 87.5498 155.15 86.7298 155.56C85.8998 155.96 85.0298 156.19 84.0798 156.22C83.1398 156.25 82.2498 156.1 81.3998 155.75C80.5598 155.4 79.8098 154.92 79.1598 154.3C78.5098 153.67 77.9998 152.95 77.5998 152.1C77.4298 151.74 77.2898 151.37 77.1898 150.98C75.1598 151.06 73.1898 151.14 71.2798 151.24C71.4998 152.47 71.8898 153.64 72.4298 154.76C73.1898 156.3 74.1498 157.62 75.3298 158.74C76.5098 159.86 77.8598 160.73 79.3898 161.36C80.9198 161.99 82.5298 162.26 84.2398 162.2C85.9698 162.14 87.5698 161.75 89.0498 161.02C90.5298 160.29 91.8298 159.34 92.9498 158.14C94.0798 156.94 94.9698 155.54 95.6198 153.96C96.0498 152.92 96.3398 151.85 96.4998 150.73C94.4898 150.7 92.5098 150.7 90.5498 150.72L90.5698 150.71Z" fill="#EF8B06"/>
<path d="M114.14 154.83C115.65 154.26 116.9 153.32 117.88 152.03C117.99 151.88 118.11 151.72 118.2 151.56C111.81 151.11 105.53 150.86 99.49 150.76C99.42 154.43 99.35 158.11 99.27 161.79C101.1 161.84 102.92 161.89 104.76 161.97C104.84 159.72 104.92 157.48 105.01 155.23C105.56 155.26 106.13 155.28 106.69 155.31C107.24 155.34 107.81 155.37 108.37 155.4C109.83 157.73 111.25 160.08 112.65 162.44C114.75 162.59 116.86 162.78 118.96 162.98C117.4 160.25 115.79 157.53 114.14 154.83Z" fill="#EF8B06"/>
<path d="M139.12 155.99C139.22 155.26 139.33 154.54 139.43 153.82C133.63 152.97 127.82 152.33 122.07 151.86C121.73 155.64 121.39 159.42 121.05 163.2C126.7 163.81 132.34 164.6 137.96 165.57L138.73 160.25C134.89 159.58 131.05 159.01 127.19 158.51C127.34 157.09 127.5 155.69 127.65 154.27C131.48 154.76 135.29 155.34 139.11 155.99H139.12Z" fill="#EF8B06"/>
<path d="M127.67 154.27C127.52 155.69 127.36 157.09 127.21 158.51C131.07 159.01 134.91 159.59 138.75 160.25L137.98 165.57C132.36 164.6 126.72 163.81 121.07 163.2C121.41 159.42 121.75 155.64 122.09 151.86C127.83 152.33 133.65 152.97 139.45 153.82C139.35 154.55 139.24 155.27 139.14 155.99C135.32 155.33 131.51 154.76 127.68 154.27H127.67Z" fill="#EF8B06"/>
</g>
<defs>
<linearGradient id="paint0_linear_6606_1637" x1="111.79" y1="59.56" x2="127.89" y2="59.56" gradientUnits="userSpaceOnUse">
<stop stop-color="#BDCCD4"/>
<stop offset="1"/>
</linearGradient>
<clipPath id="clip0_6606_1637">
<rect width="185.5" height="169.06" fill="white"/>
</clipPath>
</defs>
</svg>
